# xmcd
#
# Track frame offsets: 
#        150
#        11280
#        21294
#        35757
#        49492
#        63672
#        75005
#        87295
#        98167
#        111167
#
# Disc length: 1675 seconds
#
# Revision: 0
# Processed by: cddbd v1.5.2PL0 Copyright (c) Steve Scherf et al.
# Submitted via: ExactAudioCopyFreeDBPlugin 1.0
#
DISCID=7506890a
DTITLE=Compilation - Legends of Bluegrass  disc 3
DYEAR=2002
DGENRE=Bluegrass
TTITLE0=Red Rocking Chair - Charlie Monroe and Kentucky Pardners
TTITLE1=Back Up and Push - Chet Atkins
TTITLE2=Over the Hills to the Poor House - Lester Flatt and Mac Wiseman
TTITLE3=Brilliancy Medley - Robinson, Eck and Family
TTITLE4=The Prisooner's Song - Vernon Dalhart
TTITLE5=Down in the Willow - Mainer, Wade and Zeke Morris
TTITLE6=Freight Train Moan - Arthur Smith Trio
TTITLE7=Salty Dog Blues - Morris Brothers
TTITLE8=Down With the Old Canoe - Dixon Brothers
TTITLE9=My Name is John Johanna - Kelly Harrell
EXTD=
EXTT0=
EXTT1=
EXTT2=
EXTT3=
EXTT4=
EXTT5=
EXTT6=
EXTT7=
EXTT8=
EXTT9=
PLAYORDER=
